<svg width="14" height="14" viewBox="0 0 14 14" fill="none" xmlns="http://www.w3.org/2000/svg">
<path fill-rule="evenodd" clip-rule="evenodd" d="M7 0C5.0988 0 4.8608 0.00793334 4.11413 0.042C3.36887 0.0760667 2.85973 0.1946 2.41453 0.367733C1.94787 0.5432 1.5246 0.818533 1.1746 1.17507C0.818637 1.52466 0.543134 1.94763 0.367267 2.41453C0.195067 2.85973 0.0760667 3.36933 0.042 4.1146C0.0084 4.8608 0 5.09833 0 7C0 8.90167 0.00793334 9.1392 0.042 9.88587C0.0760667 10.6311 0.1946 11.1403 0.367733 11.5855C0.5432 12.0521 0.818533 12.4754 1.17507 12.8254C1.52467 13.1814 1.94764 13.4569 2.41453 13.6327C2.85973 13.8054 3.36887 13.9239 4.11413 13.958C4.8608 13.9921 5.0988 14 7 14C8.9012 14 9.1392 13.9921 9.88587 13.958C10.6311 13.9239 11.1403 13.8054 11.5855 13.6323C12.0521 13.4568 12.4754 13.1815 12.8254 12.8249C13.1814 12.4753 13.4569 12.0524 13.6327 11.5855C13.8054 11.1403 13.9239 10.6311 13.958 9.88587C13.9921 9.1392 14 8.9012 14 7C14 5.0988 13.9921 4.8608 13.958 4.11413C13.9239 3.36887 13.8054 2.85973 13.6323 2.41453C13.4565 1.94743 13.181 1.52428 12.8249 1.1746C12.4753 0.818637 12.0524 0.543134 11.5855 0.367267C11.1403 0.195067 10.6307 0.0760667 9.8854 0.042C9.1392 0.0084 8.90167 0 7 0ZM7 1.2614C8.869 1.2614 9.09067 1.2684 9.82893 1.302C10.5112 1.33327 10.8817 1.44667 11.1286 1.54327C11.4553 1.66973 11.6886 1.82187 11.9336 2.0664C12.1786 2.3114 12.3303 2.54473 12.4567 2.8714C12.5529 3.11827 12.6667 3.4888 12.698 4.17107C12.7316 4.90933 12.7386 5.131 12.7386 7C12.7386 8.869 12.7316 9.09067 12.698 9.82893C12.6667 10.5112 12.5533 10.8817 12.4567 11.1286C12.3447 11.4327 12.1659 11.7077 11.9336 11.9336C11.7078 12.166 11.4327 12.3448 11.1286 12.4567C10.8817 12.5529 10.5112 12.6667 9.82893 12.698C9.09067 12.7316 8.86947 12.7386 7 12.7386C5.13053 12.7386 4.90933 12.7316 4.17107 12.698C3.4888 12.6667 3.11827 12.5533 2.8714 12.4567C2.56735 12.3447 2.29227 12.1659 2.0664 11.9336C1.83408 11.7077 1.65533 11.4326 1.54327 11.1286C1.44713 10.8817 1.33327 10.5112 1.302 9.82893C1.2684 9.09067 1.2614 8.869 1.2614 7C1.2614 5.131 1.2684 4.90933 1.302 4.17107C1.33327 3.4888 1.44667 3.11827 1.54327 2.8714C1.66973 2.54473 1.82187 2.3114 2.0664 2.0664C2.29224 1.83402 2.56732 1.65526 2.8714 1.54327C3.11827 1.44713 3.4888 1.33327 4.17107 1.302C4.90933 1.2684 5.131 1.2614 7 1.2614V1.2614Z" fill="white"/>
<path fill-rule="evenodd" clip-rule="evenodd" d="M7.00034 9.33558C6.69362 9.33558 6.3899 9.27517 6.10652 9.15779C5.82315 9.04041 5.56566 8.86837 5.34878 8.65148C5.13189 8.4346 4.95985 8.17711 4.84247 7.89374C4.72509 7.61036 4.66468 7.30664 4.66468 6.99992C4.66468 6.69319 4.72509 6.38947 4.84247 6.1061C4.95985 5.82272 5.13189 5.56524 5.34878 5.34835C5.56566 5.13146 5.82315 4.95942 6.10652 4.84204C6.3899 4.72466 6.69362 4.66425 7.00034 4.66425C7.6198 4.66425 8.21389 4.91033 8.65191 5.34835C9.08993 5.78637 9.33601 6.38046 9.33601 6.99992C9.33601 7.61937 9.08993 8.21346 8.65191 8.65148C8.21389 9.08951 7.6198 9.33558 7.00034 9.33558V9.33558ZM7.00034 3.40192C6.04609 3.40192 5.13093 3.78099 4.45617 4.45575C3.78142 5.1305 3.40234 6.04567 3.40234 6.99992C3.40234 7.95417 3.78142 8.86933 4.45617 9.54409C5.13093 10.2188 6.04609 10.5979 7.00034 10.5979C7.95459 10.5979 8.86976 10.2188 9.54451 9.54409C10.2193 8.86933 10.5983 7.95417 10.5983 6.99992C10.5983 6.04567 10.2193 5.1305 9.54451 4.45575C8.86976 3.78099 7.95459 3.40192 7.00034 3.40192V3.40192ZM11.6451 3.33658C11.6451 3.56215 11.5555 3.77848 11.396 3.93798C11.2365 4.09748 11.0201 4.18708 10.7946 4.18708C10.569 4.18708 10.3527 4.09748 10.1932 3.93798C10.0337 3.77848 9.94407 3.56215 9.94407 3.33658C9.94407 3.11102 10.0337 2.89469 10.1932 2.73519C10.3527 2.57569 10.569 2.48608 10.7946 2.48608C11.0201 2.48608 11.2365 2.57569 11.396 2.73519C11.5555 2.89469 11.6451 3.11102 11.6451 3.33658" fill="white"/>
</svg>
