<svg width="37" height="37" viewBox="0 0 37 37" fill="none" xmlns="http://www.w3.org/2000/svg">
<path d="M31.4583 5.37656C27.9978 1.90781 23.3893 0 18.4917 0C8.38281 0 0.15692 8.22589 0.15692 18.3348C0.15692 21.5641 0.99933 24.719 2.60156 27.5022L0 37L9.72076 34.448C12.3967 35.9098 15.4112 36.6779 18.4835 36.6779H18.4917C28.5924 36.6779 37 28.452 37 18.3431C37 13.4455 34.9187 8.84531 31.4583 5.37656ZM18.4917 33.5891C15.7498 33.5891 13.0656 32.854 10.7283 31.4665L10.175 31.1362L4.41027 32.6475L5.94643 27.0232L5.58304 26.4451C4.05513 24.017 3.25402 21.2172 3.25402 18.3348C3.25402 9.93549 10.0924 3.0971 18.5 3.0971C22.5717 3.0971 26.3955 4.68281 29.2696 7.56518C32.1437 10.4475 33.9112 14.2714 33.9029 18.3431C33.9029 26.7507 26.8911 33.5891 18.4917 33.5891ZM26.8498 22.1752C26.3955 21.944 24.1408 20.8373 23.7196 20.6886C23.2984 20.5317 22.9929 20.4574 22.6873 20.9199C22.3817 21.3824 21.5062 22.4065 21.2337 22.7203C20.9694 23.0259 20.6969 23.0672 20.2426 22.8359C17.5502 21.4897 15.7828 20.4326 14.0071 17.385C13.5364 16.5757 14.4779 16.6335 15.3533 14.8826C15.502 14.577 15.4277 14.3127 15.3121 14.0815C15.1964 13.8502 14.2797 11.5955 13.8998 10.6788C13.5281 9.78683 13.1482 9.91071 12.8674 9.8942C12.6031 9.87768 12.2975 9.87768 11.992 9.87768C11.6864 9.87768 11.1908 9.9933 10.7696 10.4475C10.3484 10.91 9.16741 12.0167 9.16741 14.2714C9.16741 16.5261 10.8109 18.7065 11.0339 19.0121C11.2652 19.3176 14.2632 23.9426 18.8634 25.933C21.7705 27.1884 22.9103 27.2958 24.3638 27.081C25.2475 26.9489 27.0728 25.9743 27.4527 24.9007C27.8326 23.827 27.8326 22.9103 27.717 22.7203C27.6096 22.5138 27.304 22.3982 26.8498 22.1752Z" fill="black"/>
</svg>
